# xmcd
#
# Track frame offsets:
#	183
#	11678
#	25493
#	37523
#	49735
#	61815
#	74273
#	101048
#	113105
#	125133
#
# Disc length: 1959 seconds
#
# Revision: 3
# Processed by: cddbd v1.5.2PL0 Copyright (c) Steve Scherf et al.
# Submitted via: MusicManager 7.3.0.0 
#
DISCID=8207a50a
DTITLE=Various Artist - The Blues Story
DYEAR=1141
DGENRE=
TTITLE0=Muddy Waters - Goin  Home
TTITLE1=Howlin' Wolf - Highway 49
TTITLE2=John Lee Hooker - Crawling King Snake
TTITLE3=Elmore James - Mean Mistreatin  Mama
TTITLE4=Jimmy Reed - My Baby's So Sweet
TTITLE5=Howlin' Wolf - Cause Of It All
TTITLE6=Otis Rush - It's Hard For Me To Believe
TTITLE7=Jimmy Reed - Honest I Do
TTITLE8=John Lee Hooker - I'm In The Mood
TTITLE9=B. B. King - The Thrill Is Gone
EXTD=
EXTT0=Muddy Waters\\n\n
EXTT1=Howlin  Wolf\\n
EXTT2=John Lee Hooker\\n
EXTT3=Elmore James\\n
EXTT4=Jimmy Reed\\n
EXTT5=Howlin  Wolf\\n
EXTT6=Otis Rush\\n
EXTT7=Jimmy Reed\\n
EXTT8=John Lee Hooker\\n
EXTT9=B.B. King\\n
PLAYORDER=
